HIERARCHY
ROOT Hips
{
	OFFSET 0.000000 0.000000 0.000000
	CHANNELS 6 Xposition Yposition Zposition Zrotation Yrotation Xrotation 
	JOINT LHipJoint
	{
		OFFSET 0.000000 0.000000 0.000000
		CHANNELS 3 Zrotation Yrotation Xrotation
		JOINT LeftUpLeg
		{
			OFFSET 1.363060 -1.794630 0.839290
			CHANNELS 3 Zrotation Yrotation Xrotation
			JOINT LeftLeg
			{
				OFFSET 2.448110 -6.726130 0.000000
				CHANNELS 3 Zrotation Yrotation Xrotation
				JOINT LeftFoot
				{
					OFFSET 2.562200 -7.039590 0.000000
					CHANNELS 3 Zrotation Yrotation Xrotation
					JOINT LeftToeBase
					{
						OFFSET 0.157640 -0.433110 2.322550
						CHANNELS 3 Zrotation Yrotation Xrotation
						End Site
						{
							OFFSET 0.000000 0.000000 0.000000
						}
					}
				}
			}
		}
	}
	JOINT RHipJoint
	{
		OFFSET 0.000000 0.000000 0.000000
		CHANNELS 3 Zrotation Yrotation Xrotation
		JOINT RightUpLeg
		{
			OFFSET -1.305520 -1.794630 0.839290
			CHANNELS 3 Zrotation Yrotation Xrotation
			JOINT RightLeg
			{
				OFFSET -2.542530 -6.985550 0.000000
				CHANNELS 3 Zrotation Yrotation Xrotation
				JOINT RightFoot
				{
					OFFSET -2.568260 -7.056230 0.000000
					CHANNELS 3 Zrotation Yrotation Xrotation
					JOINT RightToeBase
					{
						OFFSET -0.164730 -0.452590 2.363150
						CHANNELS 3 Zrotation Yrotation Xrotation
						End Site
						{
							OFFSET 0.000000 0.000000 0.000000
						}
					}
				}
			}
		}
	}
	JOINT LowerBack
	{
		OFFSET 0.000000 0.000000 0.000000
		CHANNELS 3 Zrotation Yrotation Xrotation
		JOINT Spine
		{
			OFFSET 0.028270 2.035590 -0.193380
			CHANNELS 3 Zrotation Yrotation Xrotation
			JOINT Spine1
			{
				OFFSET 0.056720 2.048850 -0.042750
				CHANNELS 3 Zrotation Yrotation Xrotation
				JOINT Neck
				{
					OFFSET 0.000000 0.000000 0.000000
					CHANNELS 3 Zrotation Yrotation Xrotation
					JOINT Neck1
					{
						OFFSET -0.054170 1.746240 0.172020
						CHANNELS 3 Zrotation Yrotation Xrotation
						JOINT Head
						{
							OFFSET 0.104070 1.761360 -0.123970
							CHANNELS 3 Zrotation Yrotation Xrotation
							End Site
							{
								OFFSET 0.000000 0.000000 0.000000
							}
						}
					}
				}
				JOINT LeftShoulder
				{
					OFFSET 0.000000 0.000000 0.000000
					CHANNELS 3 Zrotation Yrotation Xrotation
					JOINT LeftArm
					{
						OFFSET 3.362410 1.200890 -0.311210
						CHANNELS 3 Zrotation Yrotation Xrotation
						JOINT LeftForeArm
						{
							OFFSET 4.983000 -0.000000 -0.000000
							CHANNELS 3 Zrotation Yrotation Xrotation
							JOINT LeftHand
							{
								OFFSET 3.483560 -0.000000 -0.000000
								CHANNELS 3 Zrotation Yrotation Xrotation
								JOINT LeftFingerBase
								{
									OFFSET 0.000000 0.000000 0.000000
									CHANNELS 3 Zrotation Yrotation Xrotation
									JOINT LeftHandIndex1
									{
										OFFSET 0.715260 -0.000000 -0.000000
										CHANNELS 3 Zrotation Yrotation Xrotation
										End Site
										{
											OFFSET 0.000000 0.000000 0.000000
										}
									}
								}
								JOINT LThumb
								{
									OFFSET 0.000000 0.000000 0.000000
									CHANNELS 3 Zrotation Yrotation Xrotation
									End Site
									{
										OFFSET 0.000000 0.000000 0.000000
									}
								}
							}
						}
					}
				}
				JOINT RightShoulder
				{
					OFFSET 0.000000 0.000000 0.000000
					CHANNELS 3 Zrotation Yrotation Xrotation
					JOINT RightArm
					{
						OFFSET -3.136600 1.374050 -0.404650
						CHANNELS 3 Zrotation Yrotation Xrotation
						JOINT RightForeArm
						{
							OFFSET -5.241900 -0.000000 -0.000000
							CHANNELS 3 Zrotation Yrotation Xrotation
							JOINT RightHand
							{
								OFFSET -3.444170 -0.000000 -0.000000
								CHANNELS 3 Zrotation Yrotation Xrotation
								JOINT RightFingerBase
								{
									OFFSET 0.000000 0.000000 0.000000
									CHANNELS 3 Zrotation Yrotation Xrotation
									JOINT RightHandIndex1
									{
										OFFSET -0.622530 -0.000000 -0.000000
										CHANNELS 3 Zrotation Yrotation Xrotation
										End Site
										{
											OFFSET 0.000000 0.000000 0.000000
										}
									}
								}
								JOINT RThumb
								{
									OFFSET 0.000000 0.000000 0.000000
									CHANNELS 3 Zrotation Yrotation Xrotation
									End Site
									{
										OFFSET 0.000000 0.000000 0.000000
									}
								}
							}
						}
					}
				}
			}
		}
	}
}
MOTION
Frames: 4
Frame Time: 0.008333
-0.590709 18.372759 8.531637 -5.446065 0.532892 14.268602 5.589562 4.117831 -2.636952 -21.864218 -40.040303 16.012288 -3.690111 -1.836191 -2.224485 -14.025246 43.602842 -26.410270 0.307600 3.565700 9.857900 -1.805857 -4.327921 -1.349776 21.428134 26.899528 1.270759 3.548169 -0.604128 2.531228 7.233524 -23.475537 -0.956787 -0.018200 -0.870100 2.391600 0.958493 1.236555 13.735916 6.785726 3.809441 -36.029730 -6.111077 -0.892771 -12.191515 -9.144822 -5.436092 -9.520613 13.387365 -10.068659 33.476228 2.230100 -2.933600 9.027900 -8.401019 -5.789579 3.337176 -85.202253 15.195353 -29.904406 13.379943 -16.282417 -2.545621 -0.177390 1.146733 20.432394 15.144864 -9.026681 -2.810600 -7.125000 0.000000 0.000000 -8.021100 19.601600 4.913400 12.591436 6.889845 3.063945 81.104800 -14.855922 -19.576598 -12.204973 16.598425 -2.318551 1.003379 1.407609 46.674753 8.453182 -29.397522 -4.564500 7.125000 0.000000 0.000000 42.748500 -55.676000 -12.882600 
-0.592076 18.373075 8.532793 -5.595772 0.637014 14.186262 5.734851 4.125449 -2.644077 -21.977568 -40.149602 16.239665 -3.699212 -1.869082 -2.240345 -14.050312 43.658329 -26.550804 0.308300 3.569500 9.868400 -1.657154 -4.349493 -1.277277 21.458156 26.914365 1.307005 3.547223 -0.609578 2.514255 7.249533 -23.540912 -0.962615 -0.019200 -0.894400 2.458200 0.496867 1.295904 13.686685 8.313132 4.238204 -35.608101 -6.523556 -0.963383 -12.169783 -9.824278 -5.125485 -9.391741 14.130270 -9.686951 32.751557 2.494000 -2.716100 8.821500 -8.595079 -5.761752 3.271205 -85.592652 14.857608 -30.382909 13.395719 -16.274455 -2.545063 -0.177684 1.146915 20.818085 15.212325 -8.865044 -2.778700 -7.125000 0.000000 0.000000 -7.970800 19.766900 4.852200 12.455982 6.975017 3.118350 80.546766 -14.501570 -19.357692 -12.133981 16.528923 -2.296606 0.998247 1.406361 46.595794 8.414267 -29.294668 -4.530100 7.125000 0.000000 0.000000 42.615400 -55.602200 -12.748900 
-0.592812 18.373075 8.533109 -5.763735 0.767283 14.153403 5.879845 4.120023 -2.662563 -22.002029 -40.236752 16.364752 -3.711218 -1.898978 -2.243157 -13.974360 43.559182 -26.826277 0.340200 3.748100 10.369100 -1.502824 -4.363213 -1.217824 21.477470 26.907458 1.275413 3.545783 -0.627868 2.523464 7.256864 -23.576997 -1.014923 -0.021900 -0.955800 2.627200 0.054753 1.359570 13.658231 9.840189 4.674102 -35.312435 -6.907782 -1.029764 -12.079749 -9.847323 -4.769132 -8.898642 13.919887 -9.060497 31.570554 2.468000 -2.498200 8.426500 -8.807289 -5.771816 3.205213 -86.006824 14.509007 -30.892909 13.391886 -16.236259 -2.538413 -0.172603 1.160883 21.194214 15.305491 -8.818420 -2.787400 -7.125000 0.000000 0.000000 -7.900200 19.797100 4.803000 12.237614 7.054388 3.159749 80.070699 -14.179943 -19.070799 -12.115800 16.533059 -2.296212 0.993055 1.409020 46.444843 8.429044 -29.271453 -4.535200 7.125000 0.000000 0.000000 42.607300 -55.580500 -12.721800 
-0.592392 18.372970 8.532898 -5.952735 0.897023 14.069777 6.025902 4.124284 -2.651607 -22.006725 -40.300712 16.493663 -3.719510 -1.928738 -2.241526 -13.941570 43.500084 -26.935157 0.354600 3.826000 10.587600 -1.345336 -4.384669 -1.125728 21.516784 26.864601 1.250925 3.543702 -0.639601 2.527341 7.252708 -23.582143 -1.024567 -0.022300 -0.964200 2.650200 -0.361917 1.418656 13.545885 11.435251 5.084219 -34.694603 -7.346322 -1.120575 -12.203484 -10.416782 -4.756291 -9.295227 13.805484 -8.857451 31.522977 2.508900 -2.435400 8.450400 -9.013337 -5.709273 3.125364 -86.387220 14.219905 -31.262325 13.372834 -16.195568 -2.529629 -0.174897 1.175102 21.414798 15.413747 -8.796033 -2.806100 -7.125000 0.000000 0.000000 -7.815400 19.802400 4.749500 12.060744 7.139374 3.202618 79.611244 -13.900227 -18.806501 -12.112173 16.555409 -2.297721 0.988566 1.414887 46.339514 8.457877 -29.314759 -4.558300 7.125000 0.000000 0.000000 42.677400 -55.607700 -12.779100 
